# xmcd CD database file
#
# Track frame offsets:
#	187
#	25230
#	45545
#	69740
#	93447
#	115037
#	142865
#	164962
#	191935
#	219730
#	239072
#	265455
#
# Disc length: 3891 seconds
#
# Revision: 0
# Processed by: cddbd v1.5PL3 Copyright (c) Steve Scherf et al.
# Submitted via: CDex 1.51
#
DISCID=bc0f310c
DTITLE=Sadao Watanabe - TWIN BEST Disc 2
DYEAR=1998
DGENRE=Jazz
TTITLE0=CALIFORNIA SHOWER
TTITLE1=MORNING ISLAND
TTITLE2=DESERT RIDE (Gary McFarland)
TTITLE3=SEVENTH HIGH
TTITLE4=NGOMA PARTY
TTITLE5=DOWN EAST
TTITLE6=SERENADE
TTITLE7=WE ARE THE ONE
TTITLE8=SAMBA DO MARCOS (Dave Grusin)
TTITLE9=HUNTING WORLD
TTITLE10=SAMBA EM BRAIA
TTITLE11=MY DEAR LIFE
EXTD=YEAR: 1998
EXTT0=
EXTT1=
EXTT2=
EXTT3=
EXTT4=
EXTT5=
EXTT6=
EXTT7=
EXTT8=
EXTT9=
EXTT10=
EXTT11=
PLAYORDER=
